# xmcd
#
# Track frame offsets:
#	150
#	19915
#	36552
#	50641
#	68423
#	79860
#	93820
#	110300
#	141721
#	154385
#	166803
#	175864
#	190355
#	206365
#	236773
#
# Disc length: 3352 seconds
# Revision: 0
# Processed by: cddbd v1.5.2PL0 Copyright (c) Steve Scherf et al.
# Submitted via: dBpowerAMP V12.0
#
DISCID=cf0d160f
DTITLE=South Loomis Quickstep - Satin Rose
DYEAR=2003
DGENRE=Bluegrass
TTITLE0=Satin Rose
TTITLE1=Easy to Get Back into Loving You Again
TTITLE2=One of Those Days
TTITLE3=Child of Nature
TTITLE4=Everybody's Got to Lose Sometime
TTITLE5=The Big Rock Candy Mountains
TTITLE6=Pieces of Me
TTITLE7=The Cowboy Medeley
TTITLE8=I've Been Here Before
TTITLE9=Take the "A" Train
TTITLE10=Tumbling Tunbleweeds
TTITLE11=Bitter Creek
TTITLE12=Opus 57
TTITLE13=Midnight Moonlight
TTITLE14=Staying Alive
EXTD=
EXTT0=
EXTT1=
EXTT2=
EXTT3=
EXTT4=
EXTT5=
EXTT6=
EXTT7=
EXTT8=
EXTT9=
EXTT10=
EXTT11=
EXTT12=
EXTT13=
EXTT14=
PLAYORDER=
